<svg enable-background="new 0 0 200 53.8" viewBox="0 0 200 53.8" xmlns="http://www.w3.org/2000/svg"><g fill="#e2e2e2"><path d="m3 51.1c-.6-.6-.9-1.4-.9-2.3v-43.7c0-.9.3-1.7.9-2.3s1.4-1 2.3-1 1.7.3 2.3 1c.6.6 1 1.4 1 2.3v18.9h26.9v-18.9c0-.9.3-1.7.9-2.3s1.4-1 2.3-1 1.7.3 2.3 1c.6.6 1 1.4 1 2.3v43.8c0 .9-.3 1.7-1 2.3-.6.6-1.4.9-2.3.9s-1.7-.3-2.3-.9-.9-1.4-.9-2.3v-18.9h-27v18.9c0 .9-.3 1.7-1 2.3-.6.5-1.3.8-2.2.8s-1.7-.3-2.3-.9z"/><path d="m109.5 51.1c-.6-.6-.9-1.4-.9-2.3v-43.4c0-.9.3-1.7.9-2.3s1.4-1 2.3-1h16.5c6.4 0 11.3 1.3 14.5 4 3.2 2.6 4.8 6.1 4.8 10.4 0 2.8-.8 5.4-2.4 7.8-1.6 2.3-3.9 4-6.9 5.1 3.4.9 5.7 3 7 6.4 1.3 3.3 1.9 6.6 1.9 9.8v3.3c0 .9-.3 1.7-.9 2.3s-1.4.9-2.3.9c-1 0-1.8-.3-2.4-.9s-.9-1.4-.9-2.3v-2.1c0-2.4-.2-4.6-.6-6.6s-1.4-3.8-3.1-5.4c-1.6-1.6-4-2.4-7.3-2.4h-14.7v16.5c0 .9-.3 1.7-1 2.3-.6.6-1.4.9-2.3.9-.8-.1-1.6-.4-2.2-1zm18.4-24.8c4.1 0 7.3-.8 9.7-2.4s3.6-3.9 3.6-6.8c0-2.8-1-5-3.1-6.5s-5.6-2.3-10.5-2.3h-12.6v18z"/><path d="m168.2 49.3c-3.8-2.1-6.7-5-8.9-8.9s-3.2-8.4-3.2-13.5c0-5.2 1.1-9.7 3.2-13.5 2.2-3.9 5.1-6.8 8.9-8.9s8-3.1 12.7-3.1c3.2 0 6.1.4 8.6 1.1 2.5.8 5 1.8 7.6 3.3 1 .6 1.6 1.5 1.6 2.7 0 .7-.3 1.3-.8 1.9-.5.5-1.2.8-2.1.8-.5 0-.9-.1-1.3-.3-2.1-1.1-4.1-1.9-6.1-2.5s-4.3-.9-6.9-.9c-4.1 0-7.5.8-10.4 2.5s-5 4-6.5 6.9c-1.4 2.9-2.2 6.2-2.2 9.9s.7 7 2.2 9.9c1.4 2.9 3.6 5.2 6.5 6.9s6.3 2.5 10.4 2.5c2.6 0 4.9-.3 6.9-.9s4-1.4 6.1-2.5c.4-.2.8-.3 1.3-.3.9 0 1.5.3 2.1.8.5.5.8 1.2.8 1.9 0 1.2-.5 2.1-1.6 2.7-2.5 1.4-5 2.5-7.6 3.3-2.5.8-5.4 1.1-8.6 1.1-4.7.2-8.9-.8-12.7-2.9z"/></g><path d="m84.8 33.1-9.2-22.2c-.1-.3-.6-.3-.7 0l-9.2 22.2" fill="none"/><path d="m97.8 47.4-18.1-42.7c-.4-.9-.9-1.5-1.6-2.1-.7-.5-1.5-.8-2.5-.8h-.7c-1 0-1.8.3-2.5.8s-1.2 1.2-1.6 2.1l-18.1 42.7c-.2.6-.4 1-.4 1.4 0 .9.3 1.7.9 2.3s1.4.9 2.3.9c.7 0 1.3-.2 1.8-.5.5-.4 1-.8 1.2-1.5l4.7-11 2.5-5.9 9.2-22.2c.1-.3.6-.3.7 0l9.2 22.2 2.5 5.9 4.6 11.1c.3.6.7 1.1 1.2 1.5s1.1.5 1.8.5c.9 0 1.7-.3 2.3-.9s.9-1.4.9-2.3c0-.4-.1-.9-.3-1.5z" fill="#e2e2e2"/><path d="m111.9 5.6c0 24.1-24.8 43.2-56.3 43.2" fill="none" stroke="#32cc3d" stroke-linecap="round" stroke-miterlimit="10" stroke-width="6.8433"/></svg>