<svg xmlns="http://www.w3.org/2000/svg" viewBox="0 0 278.6 72.19"><defs><style>.a{fill:#e2e2e2;}.b{fill:none;}.c{fill:#ff0080;}</style></defs><path class="a" d="M6,74.49a4.37,4.37,0,0,1-1.31-3.21v-62A4.57,4.57,0,0,1,6,6,4.32,4.32,0,0,1,9.24,4.61a4.63,4.63,0,0,1,4.62,4.63V36H52V9.24A4.57,4.57,0,0,1,53.28,6,4.3,4.3,0,0,1,56.5,4.61,4.46,4.46,0,0,1,59.76,6a4.46,4.46,0,0,1,1.36,3.27v62a4.26,4.26,0,0,1-1.36,3.21A4.53,4.53,0,0,1,56.5,75.8,4.47,4.47,0,0,1,52,71.28V44.53H13.86V71.28a4.29,4.29,0,0,1-1.35,3.21A4.57,4.57,0,0,1,9.24,75.8,4.39,4.39,0,0,1,6,74.49Z" transform="translate(-4.71 -4.11)"/><path class="a" d="M156.94,74.49a4.33,4.33,0,0,1-1.31-3.21V9.74a4.53,4.53,0,0,1,1.31-3.27,4.29,4.29,0,0,1,3.21-1.35h23.43q13.68,0,20.51,5.63a18.21,18.21,0,0,1,6.84,14.78,19.2,19.2,0,0,1-3.37,11,18.84,18.84,0,0,1-9.8,7.19,13.83,13.83,0,0,1,9.9,9,39.37,39.37,0,0,1,2.67,13.93v4.63a4.47,4.47,0,0,1-4.53,4.52,4.55,4.55,0,0,1-3.37-1.26,4.38,4.38,0,0,1-1.25-3.26v-3a45.13,45.13,0,0,0-.91-9.3A14.89,14.89,0,0,0,196,51.32q-3.42-3.37-10.36-3.37H164.78V71.28a4.26,4.26,0,0,1-1.36,3.21,4.54,4.54,0,0,1-3.27,1.31A4.37,4.37,0,0,1,156.94,74.49ZM183,39.3q8.64,0,13.72-3.42a10.94,10.94,0,0,0,5.08-9.65A10.8,10.8,0,0,0,197.41,17q-4.38-3.21-14.94-3.22H164.78V39.3Z" transform="translate(-4.71 -4.11)"/><path class="a" d="M240.14,71.93a31.54,31.54,0,0,1-12.57-12.57A38.65,38.65,0,0,1,223,40.21a38.69,38.69,0,0,1,4.58-19.16A31.46,31.46,0,0,1,240.14,8.49a36.89,36.89,0,0,1,18-4.38A42.76,42.76,0,0,1,270.4,5.72a51.48,51.48,0,0,1,10.71,4.63,4,4,0,0,1,2.21,3.82,3.73,3.73,0,0,1-1.11,2.66A3.84,3.84,0,0,1,279.3,18a4,4,0,0,1-1.81-.41,45.69,45.69,0,0,0-8.65-3.51,35.37,35.37,0,0,0-9.75-1.21,28.6,28.6,0,0,0-14.73,3.57,22.87,22.87,0,0,0-9.15,9.75,31.08,31.08,0,0,0-3.07,14,31,31,0,0,0,3.07,14A22.84,22.84,0,0,0,244.36,64a28.6,28.6,0,0,0,14.73,3.57,35.76,35.76,0,0,0,9.75-1.21,46.42,46.42,0,0,0,8.65-3.52,4.36,4.36,0,0,1,4.72.7,3.7,3.7,0,0,1,1.11,2.72,4.06,4.06,0,0,1-2.21,3.82,52,52,0,0,1-10.71,4.62,42.76,42.76,0,0,1-12.22,1.61A37,37,0,0,1,240.14,71.93Z" transform="translate(-4.71 -4.11)"/><path class="b" d="M122,49l-13.09-31.5a.52.52,0,0,0-1,0L94.8,49" transform="translate(-4.71 -4.11)"/><path class="a" d="M140.35,69.26,114.71,8.74a7.74,7.74,0,0,0-2.26-3,5.58,5.58,0,0,0-3.57-1.16h-1a5.57,5.57,0,0,0-3.57,1.16,7.74,7.74,0,0,0-2.26,3L76.4,69.26a5.61,5.61,0,0,0-.5,2,4.44,4.44,0,0,0,1.26,3.21,4.31,4.31,0,0,0,3.26,1.31A4.63,4.63,0,0,0,83,75.05,4.88,4.88,0,0,0,84.75,73L91.28,57.3,94.8,49l13.09-31.5a.52.52,0,0,1,1,0L122,49l3.52,8.35L132,73a4.88,4.88,0,0,0,1.76,2.07,4.63,4.63,0,0,0,2.57.75,4.31,4.31,0,0,0,3.26-1.31,4.44,4.44,0,0,0,1.26-3.21A5.61,5.61,0,0,0,140.35,69.26Z" transform="translate(-4.71 -4.11)"/><path class="c" d="M80.63,76a4.85,4.85,0,1,1,0-9.7c20.48,0,39.52-6,53.61-16.77C148,39,155.5,24.93,155.5,9.93a4.85,4.85,0,1,1,9.7,0c0,18.09-8.9,34.88-25.06,47.28C124.37,69.31,103.23,76,80.63,76Z" transform="translate(-4.71 -4.11)"/></svg>