<svg xmlns="http://www.w3.org/2000/svg" viewBox="0 0 1024 373.62"><defs><style>.a{fill:#e2e2e2;}.a,.b,.c{stroke:#a0a0a0;stroke-miterlimit:10;}.b{fill:none;}.c{fill:#32cc3d;}</style></defs><path class="a" d="M113.52,268.63a12.62,12.62,0,0,1-3.78-9.29V80.2a13.14,13.14,0,0,1,3.78-9.44,12.39,12.39,0,0,1,9.29-3.92A13.37,13.37,0,0,1,136.16,80.2v77.23h110V80.2A13.14,13.14,0,0,1,250,70.76a12.39,12.39,0,0,1,9.29-3.92A13.38,13.38,0,0,1,272.62,80.2V259.34a12.37,12.37,0,0,1-3.92,9.29,13.13,13.13,0,0,1-9.43,3.77,12.89,12.89,0,0,1-13.07-13.06V182.11h-110v77.23a12.39,12.39,0,0,1-3.91,9.29,13.17,13.17,0,0,1-9.44,3.77A12.63,12.63,0,0,1,113.52,268.63Z"/><path class="a" d="M549.31,268.63a12.62,12.62,0,0,1-3.78-9.29V81.65a13.1,13.1,0,0,1,3.78-9.43,12.35,12.35,0,0,1,9.29-3.92h67.65q39.48,0,59.22,16.25t19.75,42.68a55.56,55.56,0,0,1-9.73,31.8q-9.74,14.37-28.31,20.75,20.91,5.52,28.6,26a113.81,113.81,0,0,1,7.7,40.21v13.36a12.89,12.89,0,0,1-13.07,13.06q-6.1,0-9.73-3.63a12.75,12.75,0,0,1-3.63-9.43v-8.71a129.86,129.86,0,0,0-2.61-26.86A43.24,43.24,0,0,0,662,201.71Q652.08,192,632.05,192H572v67.36a12.37,12.37,0,0,1-3.92,9.29,13.13,13.13,0,0,1-9.43,3.77A12.63,12.63,0,0,1,549.31,268.63ZM624.5,167q25,0,39.63-9.87t14.67-27.87q0-17.43-12.63-26.71t-43.12-9.3H572V167Z"/><path class="a" d="M789.56,261.22a90.94,90.94,0,0,1-36.3-36.29q-13.2-23.66-13.21-55.31t13.21-55.31A91,91,0,0,1,789.56,78q23.07-12.63,52.11-12.63,19.74,0,35.28,4.65a150.76,150.76,0,0,1,30.92,13.35c4.25,2.33,6.39,6,6.39,11a10.8,10.8,0,0,1-3.2,7.69,11.09,11.09,0,0,1-8.42,3.34,11.54,11.54,0,0,1-5.22-1.16,132.87,132.87,0,0,0-25-10.16,102.55,102.55,0,0,0-28.16-3.49q-25,0-42.54,10.31a66.16,66.16,0,0,0-26.42,28.16q-8.87,17.87-8.86,40.5t8.86,40.51a66.16,66.16,0,0,0,26.42,28.16q17.57,10.31,42.54,10.3a103,103,0,0,0,28.16-3.48,132.87,132.87,0,0,0,25-10.16,11.54,11.54,0,0,1,5.22-1.16,11.37,11.37,0,0,1,8.42,3.19,10.67,10.67,0,0,1,3.2,7.84c0,5-2.14,8.71-6.39,11A150.27,150.27,0,0,1,877,269.21q-15.54,4.64-35.28,4.64Q812.63,273.85,789.56,261.22Z"/><path class="b" d="M448.27,194.88l-37.79-91a1.51,1.51,0,0,0-2.8,0l-37.8,91"/><path class="a" d="M501.4,253.53l-74-174.78a22.34,22.34,0,0,0-6.53-8.57,16.13,16.13,0,0,0-10.31-3.34h-2.9a16.09,16.09,0,0,0-10.31,3.34,22.14,22.14,0,0,0-6.53,8.57l-74,174.78a15.74,15.74,0,0,0-1.45,5.81,12.89,12.89,0,0,0,3.63,9.29,12.51,12.51,0,0,0,9.43,3.77,13.23,13.23,0,0,0,7.41-2.18,13.87,13.87,0,0,0,5.08-6L359.72,219l10.16-24.1,37.8-91a1.51,1.51,0,0,1,2.8,0l37.79,91L458.44,219l18.87,45.29a13.81,13.81,0,0,0,5.08,6,13.18,13.18,0,0,0,7.4,2.18,12.55,12.55,0,0,0,9.44-3.77,12.89,12.89,0,0,0,3.63-9.29A15.79,15.79,0,0,0,501.4,253.53Z"/><path class="c" d="M329,272.92a14,14,0,1,1,0-28c59.14,0,114.12-17.19,154.81-48.42,39.6-30.39,61.4-71,61.4-114.3a14,14,0,0,1,28,0c0,52.22-25.69,100.7-72.35,136.51C455.26,253.67,394.22,272.92,329,272.92Z"/></svg>