<svg xmlns="http://www.w3.org/2000/svg" viewBox="0 0 1024 366.9"><defs><style>.a{fill:#2c2c2c;}.b{fill:#e2e2e2;}.c{fill:none;}.d{fill:#32cc3d;}</style></defs><rect class="a" x="0.3" y="-0.9" width="1023.39" height="368.69"/><path class="b" d="M113.52,266.12a12.64,12.64,0,0,1-3.78-9.3V77.69a13.11,13.11,0,0,1,3.78-9.44,12.39,12.39,0,0,1,9.29-3.92,13.37,13.37,0,0,1,13.35,13.36v77.23h110V77.69A13.11,13.11,0,0,1,250,68.25a12.39,12.39,0,0,1,9.29-3.92,13.38,13.38,0,0,1,13.35,13.36V256.82a12.39,12.39,0,0,1-3.92,9.3,13.13,13.13,0,0,1-9.43,3.77,12.89,12.89,0,0,1-13.07-13.07V179.6h-110v77.22a12.42,12.42,0,0,1-3.91,9.3,13.17,13.17,0,0,1-9.44,3.77A12.63,12.63,0,0,1,113.52,266.12Z"/><path class="b" d="M549.31,266.12a12.64,12.64,0,0,1-3.78-9.3V79.14a13.12,13.12,0,0,1,3.78-9.44,12.39,12.39,0,0,1,9.29-3.92h67.65q39.48,0,59.22,16.26t19.75,42.68a55.51,55.51,0,0,1-9.73,31.79q-9.74,14.37-28.31,20.76,20.91,5.52,28.6,26a113.76,113.76,0,0,1,7.7,40.21v13.35a12.89,12.89,0,0,1-13.07,13.07q-6.1,0-9.73-3.63a12.76,12.76,0,0,1-3.63-9.44v-8.71a129.83,129.83,0,0,0-2.61-26.85A43.26,43.26,0,0,0,662,199.19q-9.88-9.72-29.91-9.72H572v67.35a12.39,12.39,0,0,1-3.92,9.3,13.13,13.13,0,0,1-9.43,3.77A12.63,12.63,0,0,1,549.31,266.12ZM624.5,164.5q25,0,39.63-9.87t14.67-27.88q0-17.41-12.63-26.71t-43.12-9.29H572V164.5Z"/><path class="b" d="M789.56,258.71a90.94,90.94,0,0,1-36.3-36.29q-13.2-23.65-13.21-55.31t13.21-55.31a91,91,0,0,1,36.3-36.29q23.07-12.63,52.11-12.63,19.74,0,35.28,4.65a149.68,149.68,0,0,1,30.92,13.35c4.25,2.32,6.39,6,6.39,11a10.82,10.82,0,0,1-3.2,7.7,11.09,11.09,0,0,1-8.42,3.34,11.54,11.54,0,0,1-5.22-1.16,132.94,132.94,0,0,0-25-10.17,103,103,0,0,0-28.16-3.48q-25,0-42.54,10.31a66.16,66.16,0,0,0-26.42,28.16q-8.87,17.85-8.86,40.5t8.86,40.5a66,66,0,0,0,26.42,28.16q17.57,10.32,42.54,10.31a103,103,0,0,0,28.16-3.48,133.55,133.55,0,0,0,25-10.16,11.55,11.55,0,0,1,5.22-1.17,11.38,11.38,0,0,1,8.42,3.2,10.66,10.66,0,0,1,3.2,7.84c0,5-2.14,8.71-6.39,11A150.27,150.27,0,0,1,877,266.7q-15.54,4.64-35.28,4.64Q812.63,271.34,789.56,258.71Z"/><path class="c" d="M448.27,192.37l-37.79-91a1.51,1.51,0,0,0-2.8,0l-37.8,91"/><path class="b" d="M501.4,251l-74-174.78a22.34,22.34,0,0,0-6.53-8.57,16.13,16.13,0,0,0-10.31-3.34h-2.9a16.09,16.09,0,0,0-10.31,3.34,22.14,22.14,0,0,0-6.53,8.57L316.75,251a15.75,15.75,0,0,0-1.45,5.8,12.91,12.91,0,0,0,3.63,9.3,12.51,12.51,0,0,0,9.43,3.77,13.31,13.31,0,0,0,7.41-2.18,13.87,13.87,0,0,0,5.08-5.95l18.87-45.29,10.16-24.1,37.8-91a1.51,1.51,0,0,1,2.8,0l37.79,91,10.17,24.1,18.87,45.29a13.81,13.81,0,0,0,5.08,5.95,13.26,13.26,0,0,0,7.4,2.18,12.55,12.55,0,0,0,9.44-3.77,12.91,12.91,0,0,0,3.63-9.3A15.79,15.79,0,0,0,501.4,251Z"/><path class="d" d="M329,270.41a14,14,0,1,1,0-28c59.14,0,114.12-17.2,154.81-48.42,39.6-30.39,61.4-71,61.4-114.3a14,14,0,1,1,28,0c0,52.22-25.69,100.7-72.35,136.51C455.26,251.16,394.22,270.41,329,270.41Z"/></svg>